<mxfile host="app.diagrams.net" agent="Mozilla/5.0 (Windows NT 10.0; Win64; x64) AppleWebKit/537.36 (KHTML, like Gecko) Chrome/131.0.0.0 Safari/537.36" version="26.0.6">
  <diagram name="페이지-1" id="C319SBbpjSv716soQC_M">
    <mxGraphModel dx="1050" dy="557" grid="1" gridSize="10" guides="1" tooltips="1" connect="1" arrows="1" fold="1" page="1" pageScale="1" pageWidth="827" pageHeight="1169" math="0" shadow="0">
      <root>
        <mxCell id="0" />
        <mxCell id="1" parent="0" />
        <mxCell id="Kyu-XdoiX9xzEz3obHpJ-1" value="" style="rounded=0;whiteSpace=wrap;html=1;" vertex="1" parent="1">
          <mxGeometry x="420" y="570" width="930" height="1020" as="geometry" />
        </mxCell>
        <mxCell id="Kyu-XdoiX9xzEz3obHpJ-2" value="바로바로" style="text;html=1;align=center;verticalAlign=middle;whiteSpace=wrap;rounded=0;" vertex="1" parent="1">
          <mxGeometry x="410" y="540" width="60" height="30" as="geometry" />
        </mxCell>
        <mxCell id="Kyu-XdoiX9xzEz3obHpJ-8" style="edgeStyle=orthogonalEdgeStyle;rounded=0;orthogonalLoop=1;jettySize=auto;html=1;" edge="1" parent="1" source="Kyu-XdoiX9xzEz3obHpJ-3" target="Kyu-XdoiX9xzEz3obHpJ-5">
          <mxGeometry relative="1" as="geometry" />
        </mxCell>
        <mxCell id="Kyu-XdoiX9xzEz3obHpJ-3" value="사용자" style="shape=umlActor;verticalLabelPosition=bottom;verticalAlign=top;html=1;outlineConnect=0;" vertex="1" parent="1">
          <mxGeometry x="280" y="580" width="30" height="60" as="geometry" />
        </mxCell>
        <mxCell id="Kyu-XdoiX9xzEz3obHpJ-9" style="edgeStyle=orthogonalEdgeStyle;rounded=0;orthogonalLoop=1;jettySize=auto;html=1;" edge="1" parent="1" source="Kyu-XdoiX9xzEz3obHpJ-5" target="Kyu-XdoiX9xzEz3obHpJ-6">
          <mxGeometry relative="1" as="geometry" />
        </mxCell>
        <mxCell id="Kyu-XdoiX9xzEz3obHpJ-5" value="회원" style="shape=umlActor;verticalLabelPosition=bottom;verticalAlign=top;html=1;outlineConnect=0;" vertex="1" parent="1">
          <mxGeometry x="280" y="790" width="30" height="60" as="geometry" />
        </mxCell>
        <mxCell id="Kyu-XdoiX9xzEz3obHpJ-6" value="관리자" style="shape=umlActor;verticalLabelPosition=bottom;verticalAlign=top;html=1;outlineConnect=0;" vertex="1" parent="1">
          <mxGeometry x="280" y="1350" width="30" height="60" as="geometry" />
        </mxCell>
        <mxCell id="Kyu-XdoiX9xzEz3obHpJ-10" value="" style="ellipse;whiteSpace=wrap;html=1;" vertex="1" parent="1">
          <mxGeometry x="510" y="1350" width="120" height="80" as="geometry" />
        </mxCell>
      </root>
    </mxGraphModel>
  </diagram>
</mxfile>
